<svg width="12" height="12" viewBox="0 0 12 12" fill="none" xmlns="http://www.w3.org/2000/svg">
<g clip-path="url(#clip0_385_427)">
<path d="M6 4.00003C4.89543 4.00003 4 4.89546 4 6.00003C4 7.1046 4.89543 8.00003 6 8.00003C7.10457 8.00003 8 7.1046 8 6.00003C8 4.89546 7.10457 4.00003 6 4.00003ZM6 4.00003H10.585M1.975 3.03003L4.27 7.00003M5.44 10.97L7.73 7.00003M11 6.00003C11 8.76145 8.76142 11 6 11C3.23858 11 1 8.76145 1 6.00003C1 3.23861 3.23858 1.00003 6 1.00003C8.76142 1.00003 11 3.23861 11 6.00003Z" stroke="#FAFAFA" stroke-width="0.75" stroke-linecap="round" stroke-linejoin="round"/>
</g>
<defs>
<clipPath id="clip0_385_427">
<rect width="12" height="12" fill="white"/>
</clipPath>
</defs>
</svg>
