<svg width="12" height="12" viewBox="0 0 12 12" fill="none" xmlns="http://www.w3.org/2000/svg">
<path d="M2.95035 6.82047L0.240283 5.93747C0.240283 5.93747 -0.0835996 5.80607 0.0206907 5.5081C0.0421595 5.44665 0.0854671 5.39437 0.21502 5.30451C0.815499 4.88596 11.3294 1.10699 11.3294 1.10699C11.3294 1.10699 11.6262 1.00696 11.8013 1.07349C11.8446 1.0869 11.8836 1.11157 11.9143 1.14499C11.9449 1.1784 11.9661 1.21935 11.9758 1.26366C11.9947 1.34192 12.0026 1.42243 11.9993 1.50287C11.9984 1.57246 11.99 1.63696 11.9836 1.7381C11.9196 2.77129 10.0033 10.4823 10.0033 10.4823C10.0033 10.4823 9.88866 10.9335 9.47788 10.949C9.37693 10.9522 9.27636 10.9351 9.18216 10.8987C9.08797 10.8622 9.00207 10.8072 8.92959 10.7369C8.1235 10.0435 5.33736 8.17106 4.72171 7.75927C4.70782 7.7498 4.69613 7.73747 4.68741 7.72311C4.6787 7.70874 4.67316 7.69267 4.67118 7.67598C4.66258 7.63258 4.70977 7.57882 4.70977 7.57882C4.70977 7.57882 9.56117 3.26655 9.69026 2.81386C9.70025 2.77878 9.66249 2.76148 9.61178 2.77684C9.28957 2.89538 3.70379 6.42283 3.08731 6.81214C3.04293 6.82557 2.99603 6.82842 2.95035 6.82047Z" fill="#FAFAFA"/>
</svg>
